<svg id="Component_69_1" data-name="Component 69 – 1" xmlns="http://www.w3.org/2000/svg" xmlns:xlink="http://www.w3.org/1999/xlink" width="512" height="512" viewBox="0 0 512 512">
  <defs>
    <linearGradient id="linear-gradient" x1="0.919" y1="0.024" x2="0.333" y2="0.833" gradientUnits="objectBoundingBox">
      <stop offset="0" stop-color="#8d08bd"/>
      <stop offset="1" stop-color="#27359a"/>
    </linearGradient>
    <filter id="Icon_metro-blocked" x="151.669" y="58.914" width="110.739" height="111.994" filterUnits="userSpaceOnUse">
      <feOffset dy="3" input="SourceAlpha"/>
      <feGaussianBlur stdDeviation="7.5" result="blur"/>
      <feFlood flood-opacity="0.639"/>
      <feComposite operator="in" in2="blur"/>
      <feComposite in="SourceGraphic"/>
    </filter>
  </defs>
  <rect id="Rectangle_18" data-name="Rectangle 18" width="512" height="512" fill="url(#linear-gradient)"/>
  <g id="Man_Logo" data-name="Man Logo" transform="translate(150.978 56.599)">
    <ellipse id="Head" cx="27.37" cy="28.062" rx="27.37" ry="28.062" transform="translate(83.441 130.891)" fill="#fff"/>
    <path id="Man" d="M495.361,209.6s-.489,0,0,21.524,2.893,46.926,3.857,62.569S506.1,348.75,506.1,348.75s4.394,33.036-10.741,24.527-13.719-28.531-13.719-28.531l-10.2-76.584s-3.786,17.965-6.942,31.042c-3.945,21.3-4.261,25.455-6.764,42.788-2.77,19.2-2.326,35.923-12.171,31.286-18.064-8.509-2.929-83.091-2.929-83.091s8.837-101.111,2.929-101.111-34.663-3-44.916-19.021-24.9-42.547-11.717-45.05,18.064,34.037,38.081,39.543,47.8,5.506,47.8,5.506,21.53-3.5,28.854,8.009,33.2,77.586,22.946,80.589c-6.92,2.027-10.712,1.834-15.623-8.009-1.915-3.819-3.991-8.3-7.323-19.521C493.408,196.583,495.361,209.6,495.361,209.6Z" transform="translate(-360.7 24.123)" fill="#fff"/>
    <rect id="Rectangle_1" data-name="Rectangle 1" width="96.909" height="94.938" rx="3" transform="matrix(0.985, 0.174, -0.174, 0.985, 16.486, 0)" fill="#fff"/>
    <g transform="matrix(1, 0, 0, 1, -150.98, -56.6)" filter="url(#Icon_metro-blocked)">
      <path id="Icon_metro-blocked-2" data-name="Icon metro-blocked" d="M51.377,8.673A30.5,30.5,0,0,0,30.041-.006,30.135,30.135,0,0,0,8.757,8.546,28.7,28.7,0,0,0-.006,29.32a29.053,29.053,0,0,0,8.89,20.827A30.5,30.5,0,0,0,30.22,58.826,30.135,30.135,0,0,0,51.5,50.274,28.7,28.7,0,0,0,60.267,29.5a29.053,29.053,0,0,0-8.89-20.827Zm1.356,20.8a21.475,21.475,0,0,1-4.147,12.764l-31.6-30.847A22.741,22.741,0,0,1,30.063,7.348c12.463.037,22.633,9.964,22.67,22.129Zm-45.2-.135a21.475,21.475,0,0,1,4.147-12.764l31.6,30.847A22.742,22.742,0,0,1,30.2,51.472C17.735,51.435,7.565,41.507,7.528,29.342Z" transform="translate(181.52 145.4) rotate(-97)" fill="#781ab7"/>
    </g>
    <rect id="Rectangle_2" data-name="Rectangle 2" width="13.757" height="69.71" rx="3" transform="translate(40.382 94.909) rotate(11)" fill="#fff"/>
  </g>
</svg>
