<?xml version="1.0" encoding="utf-8"?>
<svg viewBox="128.09 3.141 18.592 44.132" width="18.592" height="44.132" xmlns="http://www.w3.org/2000/svg">
  <defs>
    <filter id="Icon_metro-blocked" x="141.122" y="0" width="52.538" height="52.692" filterUnits="userSpaceOnUse">
      <feOffset dy="3" input="SourceAlpha"/>
      <feGaussianBlur stdDeviation="7.5" result="blur"/>
      <feFlood flood-opacity="0.639"/>
      <feComposite operator="in" in2="blur"/>
      <feComposite in="SourceGraphic"/>
    </filter>
  </defs>
  <g id="Man_Logo" data-name="Man Logo" transform="matrix(0.963543, 0, 0, 0.963543, 128.095271, 3.141384)">
    <ellipse id="Head" cx="3.138" cy="3.223" rx="3.138" ry="3.223" transform="translate(9.568 15.032)" fill="#3142b4"/>
    <path id="Man" d="M396.5,134.611a15.95,15.95,0,0,0,0,2.472c.056,2.472.332,5.389.442,7.186s.789,6.324.789,6.324.5,3.794-1.231,2.817a3.686,3.686,0,0,1-1.573-3.277l-1.17-8.8s-.434,2.063-.8,3.565c-.452,2.446-.489,2.923-.775,4.914-.318,2.205-.267,4.126-1.4,3.593-2.071-.977-.336-9.543-.336-9.543s1.013-11.612.336-11.612-3.974-.345-5.15-2.184-2.855-4.886-1.343-5.174,2.071,3.909,4.366,4.541a25.022,25.022,0,0,0,5.48.632s2.468-.4,3.308.92,3.806,8.91,2.631,9.255c-.793.233-1.228.211-1.791-.92a12.171,12.171,0,0,1-.84-2.242C396.272,133.116,396.5,134.611,396.5,134.611Z" transform="translate(-381.055 -107.769)" fill="#3142b4"/>
    <path d="M 4.847 0.522 L 9.881 1.411 C 11.513 1.7 12.603 3.256 12.314 4.888 L 11.461 9.718 C 11.173 11.35 9.616 12.439 7.984 12.151 L 2.95 11.261 C 1.318 10.973 0.229 9.416 0.517 7.784 L 1.37 2.955 C 1.658 1.323 3.215 0.234 4.847 0.522 Z M 3.775 4.23 C 3.219 4.958 2.97 5.875 3.081 6.785 C 3.186 7.691 3.645 8.519 4.357 9.089 C 5.054 9.655 5.952 9.911 6.843 9.798 C 7.737 9.685 8.547 9.214 9.088 8.493 C 9.645 7.765 9.894 6.848 9.782 5.939 C 9.679 5.032 9.222 4.204 8.512 3.632 C 7.813 3.065 6.913 2.81 6.021 2.925 C 5.127 3.038 4.316 3.509 3.775 4.23 Z M 6.124 3.781 C 6.646 3.715 7.175 3.818 7.634 4.075 L 4.566 8.111 C 4.21 7.711 3.985 7.211 3.923 6.679 C 3.738 5.273 4.72 3.98 6.124 3.781 Z M 6.74 8.939 C 6.218 9.005 5.689 8.902 5.23 8.645 L 8.298 4.611 C 8.655 5.011 8.879 5.511 8.942 6.043 C 9.126 7.448 8.144 8.74 6.74 8.939 Z" id="Rectangle_1" data-name="Rectangle 1" fill="#3142b4" style=""/>
    <path d="M 3 -0.5 L 8.111 -0.5 C 9.042 -0.478 9.98 -0.081 10.586 0.525 C 11.192 1.131 11.589 2.069 11.611 3 L 11.611 7.903 C 11.589 8.834 11.192 9.772 10.586 10.378 C 9.98 10.984 9.042 11.381 8.111 11.403 L 3 11.403 C 2.069 11.381 1.131 10.984 0.525 10.378 C -0.081 9.772 -0.478 8.834 -0.5 7.903 L -0.5 3 C -0.478 2.069 -0.081 1.131 0.525 0.525 C 1.131 -0.081 2.069 -0.478 3 -0.5 Z M 1.232 1.232 C 0.752 1.712 0.478 2.274 0.5 3 L 0.5 7.903 C 0.478 8.629 0.752 9.191 1.232 9.671 C 1.712 10.151 2.274 10.425 3 10.403 L 8.111 10.403 C 8.837 10.425 9.399 10.151 9.879 9.671 C 10.359 9.191 10.633 8.629 10.611 7.903 L 10.611 3 C 10.633 2.274 10.359 1.712 9.879 1.232 C 9.399 0.752 8.837 0.478 8.111 0.5 L 3 0.5 C 2.274 0.478 1.712 0.752 1.232 1.232 Z" style="fill: none;" transform="matrix(0.985, 0.174, -0.174, 0.985, 1.892, 0)"/>
    <path d="M 3 -0.5 L 8.111 -0.5 C 9.042 -0.478 9.98 -0.081 10.586 0.525 C 11.192 1.131 11.589 2.069 11.611 3 L 11.611 7.903 C 11.589 8.834 11.192 9.772 10.586 10.378 C 9.98 10.984 9.042 11.381 8.111 11.403 L 3 11.403 C 2.069 11.381 1.131 10.984 0.525 10.378 C -0.081 9.772 -0.478 8.834 -0.5 7.903 L -0.5 3 C -0.478 2.069 -0.081 1.131 0.525 0.525 C 1.131 -0.081 2.069 -0.478 3 -0.5 Z M 1.232 1.232 C 0.752 1.712 0.478 2.274 0.5 3 L 0.5 7.903 C 0.478 8.629 0.752 9.191 1.232 9.671 C 1.712 10.151 2.274 10.425 3 10.403 L 8.111 10.403 C 8.837 10.425 9.399 10.151 9.879 9.671 C 10.359 9.191 10.633 8.629 10.611 7.903 L 10.611 3 C 10.633 2.274 10.359 1.712 9.879 1.232 C 9.399 0.752 8.837 0.478 8.111 0.5 L 3 0.5 C 2.274 0.478 1.712 0.752 1.232 1.232 Z" style="fill: none;" transform="matrix(0.985, 0.174, -0.174, 0.985, 1.892, 0)"/>
    <path d="M 3 -0.5 L 8.111 -0.5 C 9.042 -0.478 9.98 -0.081 10.586 0.525 C 11.192 1.131 11.589 2.069 11.611 3 L 11.611 7.903 C 11.589 8.834 11.192 9.772 10.586 10.378 C 9.98 10.984 9.042 11.381 8.111 11.403 L 3 11.403 C 2.069 11.381 1.131 10.984 0.525 10.378 C -0.081 9.772 -0.478 8.834 -0.5 7.903 L -0.5 3 C -0.478 2.069 -0.081 1.131 0.525 0.525 C 1.131 -0.081 2.069 -0.478 3 -0.5 Z M 1.232 1.232 C 0.752 1.712 0.478 2.274 0.5 3 L 0.5 7.903 C 0.478 8.629 0.752 9.191 1.232 9.671 C 1.712 10.151 2.274 10.425 3 10.403 L 8.111 10.403 C 8.837 10.425 9.399 10.151 9.879 9.671 C 10.359 9.191 10.633 8.629 10.611 7.903 L 10.611 3 C 10.633 2.274 10.359 1.712 9.879 1.232 C 9.399 0.752 8.837 0.478 8.111 0.5 L 3 0.5 C 2.274 0.478 1.712 0.752 1.232 1.232 Z" style="fill: none;" transform="matrix(0.985, 0.174, -0.174, 0.985, 1.892, 0)"/>
    <path d="M 3 -0.5 L 8.111 -0.5 C 9.042 -0.478 9.98 -0.081 10.586 0.525 C 11.192 1.131 11.589 2.069 11.611 3 L 11.611 7.903 C 11.589 8.834 11.192 9.772 10.586 10.378 C 9.98 10.984 9.042 11.381 8.111 11.403 L 3 11.403 C 2.069 11.381 1.131 10.984 0.525 10.378 C -0.081 9.772 -0.478 8.834 -0.5 7.903 L -0.5 3 C -0.478 2.069 -0.081 1.131 0.525 0.525 C 1.131 -0.081 2.069 -0.478 3 -0.5 Z M 1.232 1.232 C 0.752 1.712 0.478 2.274 0.5 3 L 0.5 7.903 C 0.478 8.629 0.752 9.191 1.232 9.671 C 1.712 10.151 2.274 10.425 3 10.403 L 8.111 10.403 C 8.837 10.425 9.399 10.151 9.879 9.671 C 10.359 9.191 10.633 8.629 10.611 7.903 L 10.611 3 C 10.633 2.274 10.359 1.712 9.879 1.232 C 9.399 0.752 8.837 0.478 8.111 0.5 L 3 0.5 C 2.274 0.478 1.712 0.752 1.232 1.232 Z" style="fill: none;" transform="matrix(0.985, 0.174, -0.174, 0.985, 1.892, 0)"/>
    <path d="M 3 -0.5 L 8.111 -0.5 C 9.042 -0.478 9.98 -0.081 10.586 0.525 C 11.192 1.131 11.589 2.069 11.611 3 L 11.611 7.903 C 11.589 8.834 11.192 9.772 10.586 10.378 C 9.98 10.984 9.042 11.381 8.111 11.403 L 3 11.403 C 2.069 11.381 1.131 10.984 0.525 10.378 C -0.081 9.772 -0.478 8.834 -0.5 7.903 L -0.5 3 C -0.478 2.069 -0.081 1.131 0.525 0.525 C 1.131 -0.081 2.069 -0.478 3 -0.5 Z M 1.232 1.232 C 0.752 1.712 0.478 2.274 0.5 3 L 0.5 7.903 C 0.478 8.629 0.752 9.191 1.232 9.671 C 1.712 10.151 2.274 10.425 3 10.403 L 8.111 10.403 C 8.837 10.425 9.399 10.151 9.879 9.671 C 10.359 9.191 10.633 8.629 10.611 7.903 L 10.611 3 C 10.633 2.274 10.359 1.712 9.879 1.232 C 9.399 0.752 8.837 0.478 8.111 0.5 L 3 0.5 C 2.274 0.478 1.712 0.752 1.232 1.232 Z" style="fill: none;" transform="matrix(0.985, 0.174, -0.174, 0.985, 1.892, 0)"/>
    <path d="M 3 -0.5 L 8.111 -0.5 C 9.042 -0.478 9.98 -0.081 10.586 0.525 C 11.192 1.131 11.589 2.069 11.611 3 L 11.611 7.903 C 11.589 8.834 11.192 9.772 10.586 10.378 C 9.98 10.984 9.042 11.381 8.111 11.403 L 3 11.403 C 2.069 11.381 1.131 10.984 0.525 10.378 C -0.081 9.772 -0.478 8.834 -0.5 7.903 L -0.5 3 C -0.478 2.069 -0.081 1.131 0.525 0.525 C 1.131 -0.081 2.069 -0.478 3 -0.5 Z M 1.232 1.232 C 0.752 1.712 0.478 2.274 0.5 3 L 0.5 7.903 C 0.478 8.629 0.752 9.191 1.232 9.671 C 1.712 10.151 2.274 10.425 3 10.403 L 8.111 10.403 C 8.837 10.425 9.399 10.151 9.879 9.671 C 10.359 9.191 10.633 8.629 10.611 7.903 L 10.611 3 C 10.633 2.274 10.359 1.712 9.879 1.232 C 9.399 0.752 8.837 0.478 8.111 0.5 L 3 0.5 C 2.274 0.478 1.712 0.752 1.232 1.232 Z" style="fill: none;" transform="matrix(0.985, 0.174, -0.174, 0.985, 1.892, 0)"/>
    <path d="M 3 -0.5 L 8.111 -0.5 C 9.042 -0.478 9.98 -0.081 10.586 0.525 C 11.192 1.131 11.589 2.069 11.611 3 L 11.611 7.903 C 11.589 8.834 11.192 9.772 10.586 10.378 C 9.98 10.984 9.042 11.381 8.111 11.403 L 3 11.403 C 2.069 11.381 1.131 10.984 0.525 10.378 C -0.081 9.772 -0.478 8.834 -0.5 7.903 L -0.5 3 C -0.478 2.069 -0.081 1.131 0.525 0.525 C 1.131 -0.081 2.069 -0.478 3 -0.5 Z M 1.232 1.232 C 0.752 1.712 0.478 2.274 0.5 3 L 0.5 7.903 C 0.478 8.629 0.752 9.191 1.232 9.671 C 1.712 10.151 2.274 10.425 3 10.403 L 8.111 10.403 C 8.837 10.425 9.399 10.151 9.879 9.671 C 10.359 9.191 10.633 8.629 10.611 7.903 L 10.611 3 C 10.633 2.274 10.359 1.712 9.879 1.232 C 9.399 0.752 8.837 0.478 8.111 0.5 L 3 0.5 C 2.274 0.478 1.712 0.752 1.232 1.232 Z" style="fill: none;" transform="matrix(0.985, 0.174, -0.174, 0.985, 1.892, 0)"/>
    <path d="M 3 -0.5 L 8.111 -0.5 C 9.042 -0.478 9.98 -0.081 10.586 0.525 C 11.192 1.131 11.589 2.069 11.611 3 L 11.611 7.903 C 11.589 8.834 11.192 9.772 10.586 10.378 C 9.98 10.984 9.042 11.381 8.111 11.403 L 3 11.403 C 2.069 11.381 1.131 10.984 0.525 10.378 C -0.081 9.772 -0.478 8.834 -0.5 7.903 L -0.5 3 C -0.478 2.069 -0.081 1.131 0.525 0.525 C 1.131 -0.081 2.069 -0.478 3 -0.5 Z M 1.232 1.232 C 0.752 1.712 0.478 2.274 0.5 3 L 0.5 7.903 C 0.478 8.629 0.752 9.191 1.232 9.671 C 1.712 10.151 2.274 10.425 3 10.403 L 8.111 10.403 C 8.837 10.425 9.399 10.151 9.879 9.671 C 10.359 9.191 10.633 8.629 10.611 7.903 L 10.611 3 C 10.633 2.274 10.359 1.712 9.879 1.232 C 9.399 0.752 8.837 0.478 8.111 0.5 L 3 0.5 C 2.274 0.478 1.712 0.752 1.232 1.232 Z" style="fill: none;" transform="matrix(0.985, 0.174, -0.174, 0.985, 1.892, 0)"/>
    <path d="M 3 -0.5 L 8.111 -0.5 C 9.042 -0.478 9.98 -0.081 10.586 0.525 C 11.192 1.131 11.589 2.069 11.611 3 L 11.611 7.903 C 11.589 8.834 11.192 9.772 10.586 10.378 C 9.98 10.984 9.042 11.381 8.111 11.403 L 3 11.403 C 2.069 11.381 1.131 10.984 0.525 10.378 C -0.081 9.772 -0.478 8.834 -0.5 7.903 L -0.5 3 C -0.478 2.069 -0.081 1.131 0.525 0.525 C 1.131 -0.081 2.069 -0.478 3 -0.5 Z M 1.232 1.232 C 0.752 1.712 0.478 2.274 0.5 3 L 0.5 7.903 C 0.478 8.629 0.752 9.191 1.232 9.671 C 1.712 10.151 2.274 10.425 3 10.403 L 8.111 10.403 C 8.837 10.425 9.399 10.151 9.879 9.671 C 10.359 9.191 10.633 8.629 10.611 7.903 L 10.611 3 C 10.633 2.274 10.359 1.712 9.879 1.232 C 9.399 0.752 8.837 0.478 8.111 0.5 L 3 0.5 C 2.274 0.478 1.712 0.752 1.232 1.232 Z" style="fill: none;" transform="matrix(0.985, 0.174, -0.174, 0.985, 1.892, 0)"/>
    <path d="M 3 -0.5 L 8.111 -0.5 C 9.042 -0.478 9.98 -0.081 10.586 0.525 C 11.192 1.131 11.589 2.069 11.611 3 L 11.611 7.903 C 11.589 8.834 11.192 9.772 10.586 10.378 C 9.98 10.984 9.042 11.381 8.111 11.403 L 3 11.403 C 2.069 11.381 1.131 10.984 0.525 10.378 C -0.081 9.772 -0.478 8.834 -0.5 7.903 L -0.5 3 C -0.478 2.069 -0.081 1.131 0.525 0.525 C 1.131 -0.081 2.069 -0.478 3 -0.5 Z M 1.232 1.232 C 0.752 1.712 0.478 2.274 0.5 3 L 0.5 7.903 C 0.478 8.629 0.752 9.191 1.232 9.671 C 1.712 10.151 2.274 10.425 3 10.403 L 8.111 10.403 C 8.837 10.425 9.399 10.151 9.879 9.671 C 10.359 9.191 10.633 8.629 10.611 7.903 L 10.611 3 C 10.633 2.274 10.359 1.712 9.879 1.232 C 9.399 0.752 8.837 0.478 8.111 0.5 L 3 0.5 C 2.274 0.478 1.712 0.752 1.232 1.232 Z" style="fill: none;" transform="matrix(0.985, 0.174, -0.174, 0.985, 1.892, 0)"/>
    <path d="M 3 -0.5 L 8.111 -0.5 C 9.042 -0.478 9.98 -0.081 10.586 0.525 C 11.192 1.131 11.589 2.069 11.611 3 L 11.611 7.903 C 11.589 8.834 11.192 9.772 10.586 10.378 C 9.98 10.984 9.042 11.381 8.111 11.403 L 3 11.403 C 2.069 11.381 1.131 10.984 0.525 10.378 C -0.081 9.772 -0.478 8.834 -0.5 7.903 L -0.5 3 C -0.478 2.069 -0.081 1.131 0.525 0.525 C 1.131 -0.081 2.069 -0.478 3 -0.5 Z M 1.232 1.232 C 0.752 1.712 0.478 2.274 0.5 3 L 0.5 7.903 C 0.478 8.629 0.752 9.191 1.232 9.671 C 1.712 10.151 2.274 10.425 3 10.403 L 8.111 10.403 C 8.837 10.425 9.399 10.151 9.879 9.671 C 10.359 9.191 10.633 8.629 10.611 7.903 L 10.611 3 C 10.633 2.274 10.359 1.712 9.879 1.232 C 9.399 0.752 8.837 0.478 8.111 0.5 L 3 0.5 C 2.274 0.478 1.712 0.752 1.232 1.232 Z" style="fill: none;" transform="matrix(0.985, 0.174, -0.174, 0.985, 1.892, 0)"/>
    <path d="M 3 -0.5 L 8.111 -0.5 C 9.042 -0.478 9.98 -0.081 10.586 0.525 C 11.192 1.131 11.589 2.069 11.611 3 L 11.611 7.903 C 11.589 8.834 11.192 9.772 10.586 10.378 C 9.98 10.984 9.042 11.381 8.111 11.403 L 3 11.403 C 2.069 11.381 1.131 10.984 0.525 10.378 C -0.081 9.772 -0.478 8.834 -0.5 7.903 L -0.5 3 C -0.478 2.069 -0.081 1.131 0.525 0.525 C 1.131 -0.081 2.069 -0.478 3 -0.5 Z M 1.232 1.232 C 0.752 1.712 0.478 2.274 0.5 3 L 0.5 7.903 C 0.478 8.629 0.752 9.191 1.232 9.671 C 1.712 10.151 2.274 10.425 3 10.403 L 8.111 10.403 C 8.837 10.425 9.399 10.151 9.879 9.671 C 10.359 9.191 10.633 8.629 10.611 7.903 L 10.611 3 C 10.633 2.274 10.359 1.712 9.879 1.232 C 9.399 0.752 8.837 0.478 8.111 0.5 L 3 0.5 C 2.274 0.478 1.712 0.752 1.232 1.232 Z" style="fill: none;" transform="matrix(0.985, 0.174, -0.174, 0.985, 1.892, 0)"/>
    <g transform="matrix(1, 0, 0, 1, -160.96, -16.99)" filter="url(#Icon_metro-blocked)">
      <path d="M 7.363 3.31 C 7.349 4.308 6.909 5.35 6.205 6.057 C 5.47 6.745 4.417 7.167 3.411 7.178 C 2.401 7.159 1.349 6.73 0.614 6.037 C -0.091 5.33 -0.536 4.291 -0.559 3.292 C -0.543 2.296 -0.104 1.256 0.599 0.55 C 1.333 -0.14 2.385 -0.564 3.392 -0.576 C 4.402 -0.557 5.454 -0.128 6.189 0.565 C 6.895 1.272 7.339 2.311 7.363 3.31 Z M 4.869 1.863 C 4.461 1.466 4.004 1.245 3.396 1.272 C 2.936 1.258 2.938 1.292 2.734 1.358 L 5.408 3.962 C 5.478 3.762 5.514 3.764 5.5 3.316 C 5.51 2.71 5.277 2.26 4.869 1.863 Z M 1.936 4.739 C 2.344 5.136 2.801 5.357 3.408 5.331 C 3.869 5.345 3.867 5.311 4.071 5.245 L 1.398 2.641 C 1.328 2.842 1.292 2.839 1.306 3.287 C 1.296 3.893 1.529 4.343 1.936 4.739 Z" style="fill: none;" transform="translate(164.53 27.13) rotate(-97)"/>
      <path d="M 7.363 3.31 C 7.349 4.308 6.909 5.35 6.205 6.057 C 5.47 6.745 4.417 7.167 3.411 7.178 C 2.401 7.159 1.349 6.73 0.614 6.037 C -0.091 5.33 -0.536 4.291 -0.559 3.292 C -0.543 2.296 -0.104 1.256 0.599 0.55 C 1.333 -0.14 2.385 -0.564 3.392 -0.576 C 4.402 -0.557 5.454 -0.128 6.189 0.565 C 6.895 1.272 7.339 2.311 7.363 3.31 Z M 4.869 1.863 C 4.461 1.466 4.004 1.245 3.396 1.272 C 2.936 1.258 2.938 1.292 2.734 1.358 L 5.408 3.962 C 5.478 3.762 5.514 3.764 5.5 3.316 C 5.51 2.71 5.277 2.26 4.869 1.863 Z M 1.936 4.739 C 2.344 5.136 2.801 5.357 3.408 5.331 C 3.869 5.345 3.867 5.311 4.071 5.245 L 1.398 2.641 C 1.328 2.842 1.292 2.839 1.306 3.287 C 1.296 3.893 1.529 4.343 1.936 4.739 Z" style="fill: none;" transform="translate(164.53 27.13) rotate(-97)"/>
      <path d="M 7.363 3.31 C 7.349 4.308 6.909 5.35 6.205 6.057 C 5.47 6.745 4.417 7.167 3.411 7.178 C 2.401 7.159 1.349 6.73 0.614 6.037 C -0.091 5.33 -0.536 4.291 -0.559 3.292 C -0.543 2.296 -0.104 1.256 0.599 0.55 C 1.333 -0.14 2.385 -0.564 3.392 -0.576 C 4.402 -0.557 5.454 -0.128 6.189 0.565 C 6.895 1.272 7.339 2.311 7.363 3.31 Z M 4.869 1.863 C 4.461 1.466 4.004 1.245 3.396 1.272 C 2.936 1.258 2.938 1.292 2.734 1.358 L 5.408 3.962 C 5.478 3.762 5.514 3.764 5.5 3.316 C 5.51 2.71 5.277 2.26 4.869 1.863 Z M 1.936 4.739 C 2.344 5.136 2.801 5.357 3.408 5.331 C 3.869 5.345 3.867 5.311 4.071 5.245 L 1.398 2.641 C 1.328 2.842 1.292 2.839 1.306 3.287 C 1.296 3.893 1.529 4.343 1.936 4.739 Z" style="fill: none;" transform="translate(164.53 27.13) rotate(-97)"/>
      <path d="M 7.363 3.31 C 7.349 4.308 6.909 5.35 6.205 6.057 C 5.47 6.745 4.417 7.167 3.411 7.178 C 2.401 7.159 1.349 6.73 0.614 6.037 C -0.091 5.33 -0.536 4.291 -0.559 3.292 C -0.543 2.296 -0.104 1.256 0.599 0.55 C 1.333 -0.14 2.385 -0.564 3.392 -0.576 C 4.402 -0.557 5.454 -0.128 6.189 0.565 C 6.895 1.272 7.339 2.311 7.363 3.31 Z M 4.869 1.863 C 4.461 1.466 4.004 1.245 3.396 1.272 C 2.936 1.258 2.938 1.292 2.734 1.358 L 5.408 3.962 C 5.478 3.762 5.514 3.764 5.5 3.316 C 5.51 2.71 5.277 2.26 4.869 1.863 Z M 1.936 4.739 C 2.344 5.136 2.801 5.357 3.408 5.331 C 3.869 5.345 3.867 5.311 4.071 5.245 L 1.398 2.641 C 1.328 2.842 1.292 2.839 1.306 3.287 C 1.296 3.893 1.529 4.343 1.936 4.739 Z" style="fill: none;" transform="translate(164.53 27.13) rotate(-97)"/>
      <path d="M 7.363 3.31 C 7.349 4.308 6.909 5.35 6.205 6.057 C 5.47 6.745 4.417 7.167 3.411 7.178 C 2.401 7.159 1.349 6.73 0.614 6.037 C -0.091 5.33 -0.536 4.291 -0.559 3.292 C -0.543 2.296 -0.104 1.256 0.599 0.55 C 1.333 -0.14 2.385 -0.564 3.392 -0.576 C 4.402 -0.557 5.454 -0.128 6.189 0.565 C 6.895 1.272 7.339 2.311 7.363 3.31 Z M 4.869 1.863 C 4.461 1.466 4.004 1.245 3.396 1.272 C 2.936 1.258 2.938 1.292 2.734 1.358 L 5.408 3.962 C 5.478 3.762 5.514 3.764 5.5 3.316 C 5.51 2.71 5.277 2.26 4.869 1.863 Z M 1.936 4.739 C 2.344 5.136 2.801 5.357 3.408 5.331 C 3.869 5.345 3.867 5.311 4.071 5.245 L 1.398 2.641 C 1.328 2.842 1.292 2.839 1.306 3.287 C 1.296 3.893 1.529 4.343 1.936 4.739 Z" style="fill: none;" transform="translate(164.53 27.13) rotate(-97)"/>
    </g>
    <rect id="Rectangle_2" data-name="Rectangle 2" width="1.577" height="8.005" rx="0.789" transform="translate(4.632 10.9) rotate(11)" fill="#3142b4"/>
  </g>
</svg>